<svg width="80" height="80" viewBox="0 0 80 80" fill="none" xmlns="http://www.w3.org/2000/svg">
<path d="M40 56.6667C41.841 56.6667 43.3334 55.1743 43.3334 53.3333C43.3334 51.4924 41.841 50 40 50C38.1591 50 36.6667 51.4924 36.6667 53.3333C36.6667 55.1743 38.1591 56.6667 40 56.6667Z" stroke="#00A7E5" stroke-width="6.66667" stroke-linecap="round" stroke-linejoin="round"/>
<path d="M63.3333 33.3333H16.6667C12.9848 33.3333 10 36.3181 10 40V66.6667C10 70.3486 12.9848 73.3333 16.6667 73.3333H63.3333C67.0152 73.3333 70 70.3486 70 66.6667V40C70 36.3181 67.0152 33.3333 63.3333 33.3333Z" stroke="#00A7E5" stroke-width="6.66667" stroke-linecap="round" stroke-linejoin="round"/>
<path d="M23.3333 33.3333V23.3333C23.3333 18.9131 25.0893 14.6738 28.2149 11.5482C31.3405 8.42262 35.5797 6.66667 40 6.66667C44.4203 6.66667 48.6595 8.42262 51.7851 11.5482C54.9107 14.6738 56.6666 18.9131 56.6666 23.3333V33.3333" stroke="#00A7E5" stroke-width="6.66667" stroke-linecap="round" stroke-linejoin="round"/>
</svg>
