<svg width="165" height="57" viewBox="0 0 165 57" fill="none" xmlns="http://www.w3.org/2000/svg">
<path d="M98.724 0H87.76V45.0003V56.2624H98.724H120.668V45.0003H98.724V0Z" fill="white"/>
<path d="M154.936 0H131.635V56.2624H142.599V33.7542H142.633V33.7607H153.578V56.2624H164.543V0H154.936ZM142.599 22.5082V11.2493H153.575V22.5018H142.63V22.5082H142.596H142.599Z" fill="white"/>
<path d="M0 0.000518799V11.2466V22.5087V23.7912V33.7548H10.964H12.0981H21.9437V45.0008H0V56.263H32.9077V56.2565V45.0072V22.5087H12.0981H10.964V11.2466H32.9077V0.000518799H10.964H0Z" fill="white"/>
<path d="M43.8701 0V11.246V22.5082V33.7542V35.3558V45.0067V56.256V56.2624H76.781V45.0003H54.8498V35.3558V33.7542H55.076H76.781V22.5082H55.076H54.8498V11.246H76.781V0H54.8498H43.8701Z" fill="white"/>
</svg>
