<svg width="92" height="19" viewBox="0 0 92 19" fill="none" xmlns="http://www.w3.org/2000/svg">
<g clip-path="url(#clip0_566_2924)">
<path d="M31.8508 -7.62939e-05H28.3135V14.5181V18.1515H31.8508H38.9304V14.5181H31.8508V-7.62939e-05Z" fill="white"/>
<path d="M49.986 -7.62939e-05H42.4686V18.1515H46.0059V10.8898H46.017V10.8919H49.5482V18.1515H53.0855V-7.62939e-05H49.986ZM46.0059 7.26161V3.62921H49.5472V7.25953H46.016V7.26161H46.0049H46.0059Z" fill="white"/>
<path d="M0 0.0001297V3.62837V7.26181V7.67558V10.8901H3.53725H3.90314H7.07957V14.5183H0V18.1517H10.6168V18.1497V14.5204V7.26181H3.90314H3.53725V3.62837H10.6168V0.0001297H3.53725H0Z" fill="white"/>
<path d="M14.1536 -7.62939e-05V3.62817V7.26161V10.8898V11.4065V14.5202V18.1495V18.1515H24.7715V14.5181H17.6959V11.4065V10.8898H17.7689H24.7715V7.26161H17.7689H17.6959V3.62817H24.7715V-7.62939e-05H17.6959H14.1536Z" fill="white"/>
<path d="M56.6594 1.65299L70.6411 9.4875L55.4766 18.1703C55.4766 18.1703 65.6444 18.162 67.862 18.1537L85.3912 4.44227L92.0015 5.10658L86.3054 0.0592651L71.4185 2.24037C70.4709 2.37968 69.5121 2.42022 68.5563 2.36304L56.6594 1.65195V1.65299Z" fill="#00A7E5"/>
</g>
<defs>
<clipPath id="clip0_566_2924">
<rect width="92" height="18.1693" fill="white"/>
</clipPath>
</defs>
</svg>
