<svg width="192" height="177" viewBox="0 0 192 177" fill="none" xmlns="http://www.w3.org/2000/svg">
<path d="M133.364 140.342V167.838C133.364 170.176 132.422 172.305 130.887 173.84C129.352 175.375 127.223 176.352 124.885 176.352H30.2537C27.9158 176.352 25.7873 175.375 24.252 173.84C22.7167 172.305 21.7745 170.176 21.7745 167.838V65.286H24.1124C29.486 65.286 34.3362 63.1226 37.8605 59.5983C41.3847 56.074 43.5482 51.2238 43.5482 45.8502C43.5482 45.3966 43.5482 44.9779 43.5482 44.594C43.5482 44.1404 43.4784 43.7217 43.4435 43.3728C42.8154 38.5226 40.4426 34.3004 36.9882 31.2647C33.5337 28.2289 29.0324 26.4145 24.1473 26.4145H21.8094V8.51404C21.8094 6.17617 22.7516 4.04766 24.2869 2.51234C25.8222 0.977021 27.9507 0 30.2886 0H124.92C127.258 0 129.386 0.977021 130.922 2.51234C132.457 4.04766 133.399 6.17617 133.399 8.51404V74.6723H76.732C76.1388 74.6723 75.6503 74.8468 75.3013 75.1609C75.0571 75.3702 74.8826 75.6494 74.8826 75.9285V136.748C74.8826 137.027 75.0222 137.306 75.3013 137.516C75.6503 137.83 76.1737 138.004 76.732 138.004H133.399V140.342H133.364ZM128.689 167.838V142.68H76.6971C74.9873 142.68 73.3822 142.052 72.2307 141.075C70.9745 139.993 70.172 138.458 70.172 136.748V75.9285C70.172 74.2187 70.9745 72.7183 72.2307 71.6017C73.3822 70.5898 74.9873 69.9966 76.6971 69.9966H128.689V8.51404C128.689 7.46723 128.27 6.49021 127.572 5.79234C126.874 5.09447 125.932 4.67574 124.885 4.67574H30.2537C29.2069 4.67574 28.2647 5.09447 27.5669 5.79234C26.869 6.49021 26.4503 7.43234 26.4503 8.51404V21.8434C31.6145 22.3319 36.3252 24.4604 40.0588 27.7404C44.3158 31.5089 47.2818 36.743 48.0494 42.7796C48.1192 43.3379 48.1541 43.8264 48.189 44.3149C48.189 44.8732 48.2588 45.3966 48.2588 45.8502C48.2588 52.5149 45.572 58.5515 41.2103 62.9132C37.372 66.7515 32.2077 69.2987 26.4852 69.857V167.838C26.4852 168.885 26.9039 169.862 27.6018 170.56C28.2996 171.258 29.2418 171.677 30.2886 171.677H124.92C125.967 171.677 126.909 171.258 127.607 170.56C128.305 169.862 128.723 168.92 128.723 167.838H128.689Z" fill="#00A7E5"/>
<path d="M54.7127 2.16339C54.9221 5.05956 55.7944 7.6068 57.0506 9.38637C58.0974 10.8519 59.3885 11.7591 60.6795 11.7591H94.4566C95.7825 11.7591 97.0736 10.8519 98.0855 9.38637C99.3417 7.6068 100.214 5.05956 100.423 2.16339L105.099 2.47743C104.82 6.21105 103.668 9.59573 101.924 12.0383C100.005 14.76 97.3876 16.4 94.4566 16.4H60.6795C57.7485 16.4 55.1315 14.76 53.2123 12.0383C51.4676 9.59573 50.3161 6.21105 50.037 2.47743L54.7127 2.16339Z" fill="#00A7E5"/>
<path d="M24.0763 159.464H131.025V164.175H24.0763V159.464Z" fill="#00A7E5"/>
<path d="M76.6958 69.9966H185.354C187.064 69.9966 188.669 70.6247 189.821 71.6017C191.077 72.6834 191.88 74.2187 191.88 75.9285V136.748C191.88 138.458 191.077 139.958 189.821 141.075C188.669 142.087 187.064 142.68 185.354 142.68H76.6958C74.986 142.68 73.3809 142.052 72.2294 141.075C70.9732 139.993 70.1707 138.458 70.1707 136.748V75.9285C70.1707 74.2187 70.9732 72.7183 72.2294 71.6017C73.3809 70.5898 74.986 69.9966 76.6958 69.9966ZM185.354 74.6723H76.6958C76.1026 74.6723 75.6141 74.8468 75.2651 75.1609C75.0209 75.3702 74.8464 75.6494 74.8464 75.9285V136.748C74.8464 137.027 74.986 137.306 75.2651 137.516C75.6141 137.83 76.1375 138.004 76.6958 138.004H185.354C185.948 138.004 186.436 137.83 186.785 137.516C187.029 137.306 187.204 137.027 187.204 136.748V75.9285C187.204 75.6494 187.064 75.3702 186.785 75.1609C186.436 74.8468 185.913 74.6723 185.354 74.6723Z" fill="#00A7E5"/>
<path d="M109.985 86.5013H155.137V91.177H109.985V86.5013Z" fill="#00A7E5"/>
<path d="M109.985 98.1558H179.388V102.866H109.985V98.1558Z" fill="#00A7E5"/>
<path d="M109.985 109.845H179.388V114.521H109.985V109.845Z" fill="#00A7E5"/>
<path d="M109.985 121.5H179.388V126.175H109.985V121.5Z" fill="#00A7E5"/>
<path d="M85.9073 84.7915H97.1779C98.7133 84.7915 100.144 85.4195 101.156 86.4315C102.168 87.4434 102.796 88.8391 102.796 90.4093V100.982C102.796 102.517 102.168 103.948 101.156 104.96C100.144 105.972 98.7482 106.6 97.1779 106.6H85.9073C84.372 106.6 82.9413 105.972 81.9294 104.96C80.9175 103.948 80.2894 102.517 80.2894 100.982V90.4093C80.2894 88.874 80.9175 87.4434 81.9294 86.4315C82.9413 85.4195 84.3371 84.7915 85.9073 84.7915ZM97.1779 89.4672H85.9073C85.663 89.4672 85.4188 89.5719 85.2443 89.7464C85.0699 89.9208 84.9652 90.1651 84.9652 90.4093V100.982C84.9652 101.226 85.0699 101.471 85.2443 101.645C85.4188 101.82 85.663 101.924 85.9073 101.924H97.1779C97.4222 101.924 97.6664 101.82 97.8409 101.645C98.0154 101.471 98.1201 101.226 98.1201 100.982V90.4093C98.1201 90.1651 98.0154 89.9208 97.8409 89.7464C97.6664 89.5719 97.4222 89.4672 97.1779 89.4672Z" fill="#00A7E5"/>
<path fill-rule="evenodd" clip-rule="evenodd" d="M85.5247 116.824C87.2694 116.824 88.7 118.255 88.7 119.999C88.7 121.744 87.2694 123.175 85.5247 123.175C83.78 123.175 82.3494 121.744 82.3494 119.999C82.3494 118.255 83.78 116.824 85.5247 116.824Z" fill="#00A7E5"/>
<path fill-rule="evenodd" clip-rule="evenodd" d="M97.5619 116.824C99.3066 116.824 100.737 118.255 100.737 119.999C100.737 121.744 99.3066 123.175 97.5619 123.175C95.8172 123.175 94.3866 121.744 94.3866 119.999C94.3866 118.255 95.8172 116.824 97.5619 116.824Z" fill="#00A7E5"/>
<path d="M48.0137 42.8144C48.0835 43.3727 48.1184 43.8613 48.1533 44.3498C48.1533 44.9081 48.2231 45.4315 48.2231 45.8851C48.2231 52.5498 45.5363 58.5864 41.1746 62.9481C36.8129 67.3098 30.7763 69.9966 24.1116 69.9966C17.4469 69.9966 11.4103 67.3098 7.04863 62.9481C2.68693 58.5864 0.00012207 52.5498 0.00012207 45.8851C0.00012207 39.2204 2.68693 33.1838 7.04863 28.8221C11.4103 24.4604 17.4469 21.7736 24.1116 21.7736C30.1831 21.7736 35.7661 24.0417 40.058 27.7753C44.315 31.5438 47.281 36.7778 48.0486 42.8144H48.0137ZM43.5125 44.6289C43.5125 44.1753 43.4427 43.7566 43.4078 43.4076C42.7797 38.5574 40.4069 34.3353 36.9525 31.2995C33.498 28.2638 28.9967 26.4493 24.1116 26.4493C18.738 26.4493 13.8878 28.6127 10.3635 32.137C6.83927 35.6612 4.67587 40.5115 4.67587 45.8851C4.67587 51.2587 6.83927 56.1089 10.3635 59.6332C13.8878 63.1574 18.738 65.3208 24.1116 65.3208C29.4852 65.3208 34.3354 63.1574 37.8597 59.6332C41.3839 56.1089 43.5474 51.2587 43.5474 45.8851C43.5474 45.4315 43.5474 45.0127 43.5474 44.6289H43.5125Z" fill="#00A7E5"/>
<path d="M18.5278 42.0119L20.6214 43.7914L28.8563 34.0561C29.8683 32.8348 31.2989 32.1719 32.7644 32.0323C34.23 31.9276 35.7304 32.3463 36.9517 33.3583L37.3704 33.7072C37.9636 34.1957 38.4172 34.7889 38.7661 35.4519C39.1151 36.1148 39.3244 36.8476 39.3942 37.6153C39.464 38.3829 39.3942 39.1157 39.15 39.8485C38.9406 40.5463 38.5568 41.2093 38.0683 41.8025L22.087 60.6451C20.5866 59.354 10.8512 51.154 10.8163 51.154C9.59506 50.1421 8.93208 48.7114 8.79251 47.2459C8.65294 45.8153 9.10655 44.28 10.1185 43.0936L10.4325 42.6748C10.921 42.0817 11.5142 41.5931 12.1772 41.2791C12.8402 40.9302 13.5729 40.7208 14.3406 40.651C15.1083 40.5812 15.841 40.651 16.5389 40.8953C17.2368 41.1046 17.8997 41.4885 18.4929 41.977L18.5278 42.0119ZM17.0972 46.897L15.527 45.571C15.527 45.571 15.2827 45.3966 15.178 45.3617C15.178 45.3617 14.9338 45.3268 14.7593 45.3268C14.5848 45.3268 14.4802 45.3617 14.3406 45.4314C14.3406 45.4314 14.1312 45.571 14.0266 45.6757L13.6776 46.0595C13.5031 46.2689 13.4334 46.548 13.4334 46.8621C13.4334 47.1412 13.5729 47.3855 13.8172 47.5949L21.4938 54.0851L34.4742 38.8017C34.4742 38.8017 34.6487 38.5574 34.6836 38.4527C34.6836 38.348 34.7185 38.2085 34.6836 38.034C34.6836 37.8595 34.6487 37.72 34.5789 37.6153C34.5091 37.5106 34.4393 37.4059 34.2997 37.3012L33.881 36.9523C33.6717 36.7778 33.3925 36.6731 33.1134 36.708C32.8342 36.708 32.59 36.8476 32.3806 37.057L21.1448 50.3166L17.0623 46.897H17.0972Z" fill="#00A7E5"/>
</svg>
