<svg width="157" height="157" viewBox="0 0 157 157" fill="none" xmlns="http://www.w3.org/2000/svg">
<path d="M36.5523 24.9889C36.5523 21.3739 35.4802 17.8402 33.4717 14.8345C31.4632 11.8289 28.6085 9.48638 25.2686 8.1033C21.9287 6.72022 18.2536 6.35868 14.7082 7.0644C11.1628 7.77012 7.90633 9.51141 5.35063 12.068C2.79493 14.6247 1.05482 17.8818 0.350374 21.4274C-0.354068 24.9731 0.00880211 28.648 1.39309 31.9874C2.77738 35.3268 5.12091 38.1807 8.12727 40.1881C11.1336 42.1955 14.6678 43.2663 18.2827 43.265C23.1271 43.258 27.771 41.33 31.1959 37.9039C34.6207 34.4778 36.547 29.8333 36.5523 24.9889ZM4.62352 24.9889C4.62352 22.2886 5.42417 19.649 6.92426 17.4037C8.42434 15.1584 10.5565 13.4084 13.0511 12.3748C15.5457 11.3412 18.2908 11.0705 20.9393 11.5969C23.5877 12.1233 26.0206 13.4232 27.9304 15.3322C29.8401 17.2412 31.141 19.6736 31.6684 22.3219C32.1958 24.9701 31.9262 27.7153 30.8936 30.2104C29.861 32.7054 28.1117 34.8382 25.867 36.3391C23.6223 37.8401 20.983 38.6418 18.2827 38.6428C14.6619 38.64 11.19 37.2008 8.62917 34.6409C6.06832 32.0811 4.62771 28.6098 4.62352 24.9889Z" fill="#00A7E5"/>
<path d="M51.9586 88.9494H30.5064V57.5859C30.5232 55.9692 30.2193 54.3652 29.6122 52.8666C29.0052 51.3681 28.107 50.0049 26.9697 48.8557C25.8324 47.7065 24.4785 46.7942 22.9864 46.1716C21.4943 45.549 19.8936 45.2285 18.2768 45.2285C16.66 45.2285 15.0592 45.549 13.5671 46.1716C12.075 46.7942 10.7211 47.7065 9.58381 48.8557C8.44651 50.0049 7.54835 51.3681 6.94129 52.8666C6.33423 54.3652 6.03031 55.9692 6.04711 57.5859V101.18C6.05061 104.423 7.341 107.533 9.63501 109.826C11.929 112.119 15.0392 113.408 18.2827 113.41H39.7217V144.775C39.7217 148.019 41.0103 151.129 43.3039 153.423C45.5975 155.717 48.7084 157.005 51.952 157.005C55.1957 157.005 58.3065 155.717 60.6002 153.423C62.8938 151.129 64.1824 148.019 64.1824 144.775V101.18C64.1785 97.9383 62.8896 94.8307 60.5983 92.5381C58.3069 90.2455 55.2 88.955 51.9586 88.9494ZM59.5668 144.775C59.5668 146.793 58.7652 148.728 57.3384 150.155C55.9116 151.581 53.9764 152.383 51.9586 152.383C49.9408 152.383 48.0057 151.581 46.5789 150.155C45.1521 148.728 44.3505 146.793 44.3505 144.775V111.099C44.3505 110.486 44.107 109.898 43.6736 109.465C43.2402 109.031 42.6524 108.788 42.0394 108.788H18.2827C16.2655 108.786 14.3316 107.983 12.9053 106.557C11.4789 105.131 10.6767 103.197 10.6746 101.18V57.5859C10.6613 56.5784 10.8483 55.5783 11.2246 54.6437C11.601 53.7091 12.1592 52.8586 12.867 52.1414C13.5747 51.4243 14.4178 50.8549 15.3474 50.4663C16.277 50.0776 17.2745 49.8775 18.282 49.8775C19.2896 49.8775 20.2871 50.0776 21.2167 50.4663C22.1463 50.8549 22.9894 51.4243 23.6971 52.1414C24.4049 52.8586 24.9631 53.7091 25.3395 54.6437C25.7158 55.5783 25.9028 56.5784 25.8895 57.5859V91.2618C25.8899 91.8746 26.1335 92.4623 26.5668 92.8956C27.0001 93.329 27.5878 93.5726 28.2006 93.5729H51.9586C53.9757 93.5754 55.9094 94.3777 57.3357 95.804C58.762 97.2302 59.5643 99.164 59.5668 101.181V144.775Z" fill="#00A7E5"/>
<path d="M138.724 6.50409C135.109 6.50409 131.576 7.57597 128.57 9.58417C125.565 11.5924 123.222 14.4467 121.839 17.7862C120.456 21.1258 120.094 24.8005 120.799 28.3457C121.504 31.8909 123.245 35.1474 125.801 37.7034C128.357 40.2594 131.613 42 135.158 42.7052C138.704 43.4104 142.378 43.0484 145.718 41.6652C149.057 40.2819 151.912 37.9394 153.92 34.9339C155.928 31.9284 157 28.3949 157 24.7802C156.995 19.9347 155.068 15.2891 151.641 11.8628C148.215 8.43653 143.569 6.50933 138.724 6.50409ZM138.724 38.4342C136.023 38.4342 133.384 37.6334 131.138 36.1331C128.893 34.6327 127.143 32.5003 126.109 30.0054C125.076 27.5104 124.805 24.7651 125.332 22.1165C125.859 19.4679 127.16 17.035 129.069 15.1254C130.979 13.2159 133.412 11.9155 136.06 11.3886C138.709 10.8618 141.454 11.1322 143.949 12.1656C146.444 13.1991 148.576 14.9491 150.077 17.1945C151.577 19.4399 152.378 22.0797 152.378 24.7802C152.374 28.4002 150.934 31.8707 148.374 34.4304C145.814 36.9901 142.344 38.43 138.724 38.4342Z" fill="#00A7E5"/>
<path d="M138.724 45.3542C135.481 45.3581 132.373 46.6479 130.08 48.9407C127.788 51.2336 126.498 54.3422 126.495 57.5845V88.9494H105.055C101.812 88.9532 98.7034 90.243 96.4106 92.5358C94.1178 94.8286 92.8281 97.9372 92.8242 101.18V144.775C92.8242 148.019 94.1128 151.129 96.4064 153.423C98.7 155.717 101.811 157.005 105.055 157.005C108.298 157.005 111.409 155.717 113.703 153.423C115.996 151.129 117.285 148.019 117.285 144.775V113.41H138.724C141.966 113.407 145.075 112.117 147.368 109.824C149.661 107.531 150.951 104.422 150.954 101.18V57.5859C150.951 54.343 149.662 51.2339 147.369 48.9407C145.076 46.6476 141.967 45.3577 138.724 45.3542ZM146.332 101.178C146.33 103.196 145.528 105.129 144.101 106.556C142.675 107.982 140.741 108.784 138.724 108.786H114.974C114.361 108.786 113.773 109.03 113.34 109.463C112.906 109.897 112.663 110.485 112.663 111.098V144.774C112.663 146.791 111.861 148.726 110.434 150.153C109.007 151.58 107.072 152.382 105.055 152.382C103.037 152.382 101.102 151.58 99.6748 150.153C98.248 148.726 97.4464 146.791 97.4464 144.774V101.18C97.4489 99.1626 98.2512 97.2289 99.6775 95.8026C101.104 94.3764 103.037 93.574 105.055 93.5716H128.811C129.424 93.5712 130.012 93.3276 130.445 92.8943C130.878 92.461 131.122 91.8733 131.122 91.2605V57.5845C131.109 56.5771 131.296 55.577 131.672 54.6424C132.049 53.7078 132.607 52.8572 133.315 52.1401C134.022 51.423 134.866 50.8536 135.795 50.4649C136.725 50.0763 137.722 49.8762 138.73 49.8762C139.737 49.8762 140.735 50.0763 141.664 50.4649C142.594 50.8536 143.437 51.423 144.145 52.1401C144.853 52.8572 145.411 53.7078 145.787 54.6424C146.164 55.577 146.351 56.5771 146.337 57.5845L146.332 101.178Z" fill="#00A7E5"/>
<path d="M43.9741 77.8046H113.032C113.645 77.8046 114.233 77.5612 114.666 77.1277C115.1 76.6943 115.343 76.1065 115.343 75.4936V63.4336C115.343 62.8207 115.1 62.2328 114.666 61.7994C114.233 61.366 113.645 61.1225 113.032 61.1225H43.9741C43.3612 61.1225 42.7733 61.366 42.3399 61.7994C41.9065 62.2328 41.663 62.8207 41.663 63.4336V75.4936C41.663 76.1065 41.9065 76.6943 42.3399 77.1277C42.7733 77.5612 43.3612 77.8046 43.9741 77.8046ZM46.2799 65.7447H110.726V73.1825H46.2799V65.7447Z" fill="#00A7E5"/>
<path d="M43.9741 41.2603H58.6529V47.6693C58.6532 48.2821 58.8968 48.8698 59.3302 49.3031C59.7635 49.7364 60.3511 49.98 60.964 49.9804H105.355C105.968 49.98 106.556 49.7364 106.989 49.3031C107.423 48.8698 107.666 48.2821 107.667 47.6693V20.1144L114.717 12.612C115.026 12.2832 115.232 11.8714 115.309 11.4272C115.387 10.9829 115.333 10.5257 115.154 10.1118C114.975 9.69799 114.678 9.34559 114.301 9.09805C113.924 8.85052 113.483 8.71868 113.032 8.71877H98.3535V2.31109C98.3535 1.69815 98.11 1.11032 97.6766 0.676903C97.2432 0.243489 96.6554 0 96.0424 0H51.6509C51.038 0 50.4501 0.243489 50.0167 0.676903C49.5833 1.11032 49.3398 1.69815 49.3398 2.31109V29.8633L42.2903 37.3644C41.9802 37.6928 41.7731 38.1048 41.6947 38.5496C41.6163 38.9943 41.6701 39.4523 41.8492 39.8669C42.0284 40.2815 42.3252 40.6344 42.7028 40.882C43.0805 41.1297 43.5225 41.2612 43.9741 41.2603ZM98.3535 38.9492V13.341H107.689L103.672 17.6211C103.268 18.0501 103.044 18.6169 103.044 19.2059V45.3542H63.2751V41.2603H96.0424C96.3461 41.2603 96.6469 41.2004 96.9274 41.0841C97.208 40.9678 97.4629 40.7973 97.6775 40.5825C97.8922 40.3676 98.0624 40.1125 98.1783 39.8318C98.2943 39.5511 98.3539 39.2503 98.3535 38.9466V38.9492ZM53.3347 32.3619C53.738 31.9328 53.9623 31.366 53.962 30.7772V4.62219H93.7313V36.6381H49.3174L53.3347 32.3619Z" fill="#00A7E5"/>
<path d="M85.0205 23.7158H62.6743C62.0613 23.7158 61.4735 23.9593 61.0401 24.3927C60.6066 24.8261 60.3632 25.414 60.3632 26.0269C60.3632 26.6398 60.6066 27.2277 61.0401 27.6611C61.4735 28.0945 62.0613 28.338 62.6743 28.338H85.0205C85.6335 28.338 86.2213 28.0945 86.6547 27.6611C87.0882 27.2277 87.3316 26.6398 87.3316 26.0269C87.3316 25.414 87.0882 24.8261 86.6547 24.3927C86.2213 23.9593 85.6335 23.7158 85.0205 23.7158Z" fill="#00A7E5"/>
<path d="M85.0205 12.9184H62.6743C62.0613 12.9184 61.4735 13.1619 61.0401 13.5953C60.6066 14.0287 60.3632 14.6165 60.3632 15.2295C60.3632 15.8424 60.6066 16.4302 61.0401 16.8637C61.4735 17.2971 62.0613 17.5406 62.6743 17.5406H85.0205C85.6335 17.5406 86.2213 17.2971 86.6547 16.8637C87.0882 16.4302 87.3316 15.8424 87.3316 15.2295C87.3316 14.6165 87.0882 14.0287 86.6547 13.5953C86.2213 13.1619 85.6335 12.9184 85.0205 12.9184Z" fill="#00A7E5"/>
</svg>
