<svg width="101" height="180" viewBox="0 0 101 180" fill="none" xmlns="http://www.w3.org/2000/svg">
<path d="M68.3421 112.687C81.0458 111.553 90.2567 107.314 95.7063 100.065C97.8891 97.0103 99.4447 93.5533 100.283 89.8938C101.121 86.2343 101.226 82.4448 100.59 78.7447C100.484 78.2443 100.235 77.7855 99.8734 77.4242C99.5115 77.0628 99.0523 76.8145 98.5518 76.7094C94.8515 76.0745 91.062 76.1795 87.4025 77.0183C83.743 77.8571 80.286 79.413 77.2316 81.5962C69.9821 87.0474 65.744 96.2568 64.6094 108.96L53.1429 120.427V82.9028L61.2253 74.8204C73.929 73.6858 83.1399 69.4478 88.588 62.1982C90.7716 59.144 92.328 55.6871 93.167 52.0276C94.0061 48.3681 94.1113 44.5785 93.4764 40.878C93.3705 40.3761 93.1206 39.916 92.7572 39.5539C92.3939 39.1919 91.9328 38.9437 91.4305 38.8397C87.7308 38.205 83.9421 38.3098 80.2831 39.1481C76.6242 39.9864 73.1677 41.5415 70.1133 43.7235C62.8638 49.1731 58.6272 58.3826 57.4911 71.0878L53.1399 75.436V47.2359C61.3203 37.4501 64.8357 27.942 63.5638 18.9619C62.9479 15.2585 61.6041 11.714 59.6101 8.53307C57.616 5.35218 55.0113 2.59806 51.9465 0.429881C51.5166 0.149365 51.0144 0 50.5011 0C49.9878 0 49.4856 0.149365 49.0557 0.429881C45.9908 2.59806 43.3861 5.35218 41.3921 8.53307C39.398 11.714 38.0542 15.2585 37.4383 18.9619C36.1664 27.942 39.6818 37.4501 47.8623 47.2359V75.436L43.514 71.0878C42.3749 58.3826 38.1384 49.1731 30.8858 43.7235C27.8318 41.5407 24.3753 39.9852 20.7163 39.1469C17.0572 38.3086 13.2683 38.2042 9.56862 38.8397C9.06628 38.9445 8.60545 39.1937 8.24259 39.5565C7.87973 39.9194 7.63061 40.3802 7.52577 40.8825C6.8909 44.583 6.99604 48.3726 7.83511 52.0321C8.67418 55.6917 10.2305 59.1485 12.4141 62.2027C17.8622 69.4523 27.0732 73.6904 39.7769 74.825L47.8592 82.9073V120.422L36.3927 108.956C35.2582 96.2523 31.0201 87.0428 23.7705 81.5917C20.7157 79.4082 17.2582 77.8524 13.598 77.0144C9.93786 76.1763 6.14781 76.0727 2.44731 76.7094C1.9468 76.8145 1.48763 77.0628 1.12573 77.4242C0.763834 77.7855 0.514809 78.2443 0.408984 78.7447C-0.225888 82.4451 -0.120748 86.2347 0.718324 89.8943C1.5574 93.5538 3.11375 97.0107 5.29734 100.065C10.747 107.314 19.9579 111.553 32.6616 112.687L47.8592 127.889V131.272C45.4177 131.657 43.0948 132.59 41.0641 133.999C39.0333 135.408 37.3473 137.258 36.1317 139.41C32.6238 139.073 29.1147 140.041 26.2756 142.128C23.4364 144.216 21.4664 147.277 20.7424 150.726H20.5191C16.7198 150.726 13.076 152.235 10.3894 154.922C7.70284 157.608 6.19354 161.252 6.19354 165.051C6.19354 168.851 7.70284 172.495 10.3894 175.181C13.076 177.868 16.7198 179.377 20.5191 179.377H80.4875C84.2869 179.377 87.9307 177.868 90.6173 175.181C93.3038 172.495 94.8131 168.851 94.8131 165.051C94.8131 161.252 93.3038 157.608 90.6173 154.922C87.9307 152.235 84.2869 150.726 80.4875 150.726H80.2642C79.5415 147.276 77.5718 144.214 74.7323 142.127C71.8929 140.039 68.3831 139.072 64.875 139.41C63.6594 137.258 61.9733 135.408 59.9426 133.999C57.9118 132.59 55.589 131.657 53.1474 131.272V127.889L68.3421 112.687ZM80.3517 85.8494C84.2746 83.0061 89.0138 81.5116 93.8581 81.5902C94.5355 81.5902 95.142 81.6158 95.652 81.6536C96.1244 87.0672 94.647 92.4715 91.4863 96.892C87.9438 101.604 82.2679 104.781 74.6094 106.42L84.448 96.5827C84.9157 96.0821 85.1705 95.4194 85.1587 94.7345C85.1469 94.0496 84.8693 93.3961 84.3846 92.912C83.8999 92.4279 83.2461 92.1511 82.5611 92.1401C81.8762 92.1291 81.2138 92.3848 80.7138 92.853L70.8768 102.692C72.5092 95.0573 75.6686 89.3935 80.3517 85.8494ZM73.2304 47.9797C77.1538 45.1362 81.8935 43.6417 86.7383 43.7205C87.4157 43.7205 88.0207 43.7477 88.5307 43.7839C89.004 49.1976 87.5266 54.6022 84.365 59.0223C80.824 63.7341 75.1465 66.9116 67.4896 68.5501L77.3267 58.713C77.5794 58.4697 77.781 58.1784 77.9198 57.8562C78.0586 57.534 78.1318 57.1874 78.135 56.8366C78.1382 56.4858 78.0715 56.1378 77.9387 55.8131C77.8059 55.4884 77.6096 55.1935 77.3615 54.9455C77.1133 54.6976 76.8182 54.5016 76.4934 54.369C76.1686 54.2365 75.8206 54.17 75.4698 54.1735C75.119 54.177 74.7724 54.2505 74.4504 54.3895C74.1283 54.5286 73.8372 54.7305 73.594 54.9834L63.7555 64.8204C65.3879 57.1907 68.5488 51.5283 73.2304 47.9827V47.9797ZM16.6733 59.0766C13.4998 54.6383 12.0127 49.214 12.479 43.7779C17.8929 43.3025 23.2982 44.7801 27.7174 47.9435C32.4292 51.4861 35.6052 57.1635 37.2452 64.8204L27.4051 54.9834C26.9101 54.4884 26.2388 54.2103 25.5388 54.2103C24.8388 54.2103 24.1674 54.4884 23.6724 54.9834C23.1775 55.4783 22.8994 56.1497 22.8994 56.8497C22.8994 57.5497 23.1775 58.221 23.6724 58.716L33.5095 68.5531C25.8813 66.9206 20.2174 63.7598 16.6733 59.0766ZM9.55202 96.9463C6.37901 92.506 4.89148 87.0807 5.35618 81.643C10.7701 81.1701 16.1747 82.6481 20.5946 85.8102C25.3064 89.3527 28.4839 95.0287 30.1224 102.687L20.2853 92.853C20.0441 92.5921 19.7526 92.3825 19.4285 92.2368C19.1043 92.0912 18.7541 92.0125 18.3988 92.0054C18.0435 91.9983 17.6904 92.0631 17.3607 92.1957C17.031 92.3284 16.7315 92.5263 16.4801 92.7775C16.2287 93.0286 16.0306 93.328 15.8977 93.6576C15.7648 93.9872 15.6998 94.3402 15.7065 94.6955C15.7133 95.0508 15.7917 95.4011 15.9371 95.7254C16.0825 96.0497 16.2919 96.3412 16.5526 96.5827L26.3912 106.42C18.7599 104.787 13.0961 101.628 9.55202 96.9448V96.9463ZM42.6541 19.7676C43.5476 14.3877 46.3292 9.50231 50.4996 5.98812C54.67 9.50231 57.4515 14.3877 58.3451 19.7676C59.1507 25.5853 57.381 31.824 53.1414 38.372V24.4613C53.1414 23.761 52.8632 23.0895 52.3681 22.5943C51.8729 22.0991 51.2013 21.821 50.5011 21.821C49.8008 21.821 49.1292 22.0991 48.6341 22.5943C48.1389 23.0895 47.8608 23.761 47.8608 24.4613V38.372C43.6197 31.824 41.8499 25.5853 42.6541 19.7676ZM60.91 143.343C61.1496 143.935 61.5951 144.419 62.1642 144.707C62.7334 144.995 63.3876 145.068 64.0059 144.911C65.3404 144.562 66.7372 144.525 68.0885 144.801C69.4398 145.078 70.7095 145.661 71.7997 146.506C72.8899 147.351 73.7714 148.435 74.3763 149.675C74.9811 150.914 75.2932 152.276 75.2884 153.656C75.2888 154.051 75.378 154.441 75.5494 154.797C75.7208 155.154 75.97 155.467 76.2786 155.714C76.5872 155.961 76.9473 156.136 77.3324 156.225C77.7175 156.314 78.1177 156.316 78.5035 156.23C79.7441 155.951 81.0296 155.937 82.2761 156.188C83.5225 156.44 84.7019 156.951 85.7372 157.69C86.7725 158.428 87.6404 159.376 88.2843 160.473C88.9282 161.569 89.3335 162.789 89.4739 164.053C89.6143 165.317 89.4865 166.596 89.0989 167.807C88.7113 169.018 88.0726 170.134 87.2246 171.082C86.3765 172.029 85.3382 172.787 84.1773 173.306C83.0164 173.825 81.7591 174.093 80.4875 174.093H20.5116C19.2309 174.106 17.9621 173.847 16.789 173.333C15.6158 172.819 14.5651 172.062 13.7061 171.112C12.8472 170.162 12.1996 169.041 11.8061 167.822C11.4127 166.603 11.2824 165.315 11.4237 164.042C11.5651 162.769 11.975 161.541 12.6263 160.438C13.2776 159.335 14.1554 158.383 15.2019 157.645C16.2484 156.906 17.4396 156.398 18.6969 156.154C19.9542 155.911 21.249 155.936 22.4956 156.23C22.8814 156.316 23.2817 156.314 23.6667 156.225C24.0518 156.136 24.412 155.961 24.7205 155.714C25.0291 155.467 25.2783 155.154 25.4497 154.797C25.6211 154.441 25.7103 154.051 25.7108 153.656C25.7068 152.277 26.0193 150.916 26.6243 149.678C27.2292 148.439 28.1103 147.356 29.1999 146.512C30.2894 145.667 31.5583 145.084 32.9086 144.808C34.259 144.531 35.6549 144.568 36.9887 144.916C37.6082 145.074 38.2641 145.001 38.8344 144.712C39.4047 144.423 39.8506 143.937 40.0892 143.343C40.9282 141.269 42.3678 139.492 44.2234 138.24C46.079 136.989 48.266 136.321 50.5041 136.321C52.7421 136.321 54.9292 136.989 56.7848 138.24C58.6404 139.492 60.08 141.269 60.919 143.343H60.91Z" fill="#00A7E5"/>
<path d="M40.2702 163.529H26.8242C26.1239 163.529 25.4524 163.807 24.9572 164.302C24.462 164.798 24.1839 165.469 24.1839 166.169C24.1839 166.87 24.462 167.541 24.9572 168.036C25.4524 168.531 26.1239 168.81 26.8242 168.81H40.2702C40.9704 168.81 41.642 168.531 42.1372 168.036C42.6323 167.541 42.9105 166.87 42.9105 166.169C42.9105 165.469 42.6323 164.798 42.1372 164.302C41.642 163.807 40.9704 163.529 40.2702 163.529Z" fill="#00A7E5"/>
<path d="M47.262 166.169C47.2618 166.516 47.3299 166.86 47.4625 167.18C47.5952 167.5 47.7896 167.792 48.0348 168.037C48.2801 168.282 48.5712 168.476 48.8916 168.609C49.2121 168.742 49.5555 168.81 49.9023 168.81H53.2728C53.9731 168.81 54.6447 168.531 55.1398 168.036C55.635 167.541 55.9131 166.87 55.9131 166.169C55.9131 165.469 55.635 164.798 55.1398 164.302C54.6447 163.807 53.9731 163.529 53.2728 163.529H49.8962C49.197 163.531 48.527 163.81 48.0332 164.305C47.5393 164.799 47.262 165.47 47.262 166.169Z" fill="#00A7E5"/>
</svg>
