<svg width="430" height="932" viewBox="0 0 430 932" fill="none" xmlns="http://www.w3.org/2000/svg">
<g clip-path="url(#clip0_938_4164)">
<rect width="430" height="932" fill="#0E0E0E"/>
<g filter="url(#filter0_f_938_4164)">
<path d="M690.685 120.223L326.846 293.375L721.464 485.275C721.464 485.275 456.873 485.091 399.166 484.908L-56.9845 181.869L-229 196.551L-80.7745 85L306.617 133.205C331.277 136.284 356.227 137.18 381.099 135.916L690.685 120.2V120.223Z" fill="#007DAB" fill-opacity="0.22"/>
</g>
<g filter="url(#filter1_f_938_4164)">
<path d="M-149.372 595.495L186.288 755.237L-177.768 932.275C-177.768 932.275 66.3313 932.106 119.57 931.936L540.392 652.367L699.086 665.912L562.34 563L204.951 607.472C182.201 610.312 159.182 611.139 136.237 609.973L-149.372 595.474V595.495Z" fill="#007DAB" fill-opacity="0.22"/>
</g>
</g>
<defs>
<filter id="filter0_f_938_4164" x="-315.865" y="-1.86528" width="1124.19" height="574.006" filterUnits="userSpaceOnUse" color-interpolation-filters="sRGB">
<feFlood flood-opacity="0" result="BackgroundImageFix"/>
<feBlend mode="normal" in="SourceGraphic" in2="BackgroundImageFix" result="shape"/>
<feGaussianBlur stdDeviation="43.4326" result="effect1_foregroundBlur_938_4164"/>
</filter>
<filter id="filter1_f_938_4164" x="-257.905" y="482.862" width="1037.13" height="529.551" filterUnits="userSpaceOnUse" color-interpolation-filters="sRGB">
<feFlood flood-opacity="0" result="BackgroundImageFix"/>
<feBlend mode="normal" in="SourceGraphic" in2="BackgroundImageFix" result="shape"/>
<feGaussianBlur stdDeviation="40.0689" result="effect1_foregroundBlur_938_4164"/>
</filter>
<clipPath id="clip0_938_4164">
<rect width="430" height="932" fill="white"/>
</clipPath>
</defs>
</svg>
