<svg width="48" height="48" viewBox="0 0 48 48" fill="none" xmlns="http://www.w3.org/2000/svg">
<path d="M4 14L12.82 5.18C13.1921 4.80566 13.6346 4.50868 14.1221 4.30616C14.6095 4.10363 15.1322 3.99958 15.66 4H32.34C32.8678 3.99958 33.3905 4.10363 33.8779 4.30616C34.3654 4.50868 34.8079 4.80566 35.18 5.18L44 14" stroke="white" stroke-width="4" stroke-linecap="round" stroke-linejoin="round"/>
<path d="M8 24V40C8 41.0609 8.42143 42.0783 9.17157 42.8284C9.92172 43.5786 10.9391 44 12 44H36C37.0609 44 38.0783 43.5786 38.8284 42.8284C39.5786 42.0783 40 41.0609 40 40V24" stroke="white" stroke-width="4" stroke-linecap="round" stroke-linejoin="round"/>
<path d="M30 44V36C30 34.9391 29.5786 33.9217 28.8284 33.1716C28.0783 32.4214 27.0609 32 26 32H22C20.9391 32 19.9217 32.4214 19.1716 33.1716C18.4214 33.9217 18 34.9391 18 36V44" stroke="white" stroke-width="4" stroke-linecap="round" stroke-linejoin="round"/>
<path d="M4 14H44" stroke="white" stroke-width="4" stroke-linecap="round" stroke-linejoin="round"/>
<path d="M44 14V20C44 21.0609 43.5786 22.0783 42.8284 22.8284C42.0783 23.5786 41.0609 24 40 24C38.8315 23.9357 37.7155 23.4935 36.82 22.74C36.5814 22.5675 36.2944 22.4747 36 22.4747C35.7056 22.4747 35.4186 22.5675 35.18 22.74C34.2845 23.4935 33.1685 23.9357 32 24C30.8315 23.9357 29.7155 23.4935 28.82 22.74C28.5814 22.5675 28.2944 22.4747 28 22.4747C27.7056 22.4747 27.4186 22.5675 27.18 22.74C26.2845 23.4935 25.1685 23.9357 24 24C22.8315 23.9357 21.7155 23.4935 20.82 22.74C20.5814 22.5675 20.2944 22.4747 20 22.4747C19.7056 22.4747 19.4186 22.5675 19.18 22.74C18.2845 23.4935 17.1685 23.9357 16 24C14.8315 23.9357 13.7155 23.4935 12.82 22.74C12.5814 22.5675 12.2944 22.4747 12 22.4747C11.7056 22.4747 11.4186 22.5675 11.18 22.74C10.2845 23.4935 9.16853 23.9357 8 24C6.93913 24 5.92172 23.5786 5.17157 22.8284C4.42143 22.0783 4 21.0609 4 20V14" stroke="white" stroke-width="4" stroke-linecap="round" stroke-linejoin="round"/>
</svg>
